<svg width="270" height="200" viewBox="0 0 270 200" xmlns="http://www.w3.org/2000/svg">
  <rect width="270" height="200" fill="#6366f1" rx="12"/>
  <rect x="90" y="40" width="90" height="90" fill="#ffffff" rx="4"/>
  <rect x="95" y="45" width="15" height="15" fill="#000000"/>
  <rect x="115" y="45" width="5" height="5" fill="#000000"/>
  <rect x="125" y="45" width="10" height="10" fill="#000000"/>
  <rect x="95" y="65" width="5" height="10" fill="#000000"/>
  <rect x="105" y="65" width="10" height="5" fill="#000000"/>
  <rect x="120" y="65" width="15" height="15" fill="#000000"/>
  <rect x="95" y="85" width="10" height="10" fill="#000000"/>
  <rect x="110" y="85" width="5" height="5" fill="#000000"/>
  <rect x="125" y="85" width="10" height="15" fill="#000000"/>
  <rect x="95" y="105" width="15" height="15" fill="#000000"/>
  <rect x="115" y="105" width="5" height="10" fill="#000000"/>
  <rect x="125" y="105" width="10" height="15" fill="#000000"/>
  <text x="135" y="160" text-anchor="middle" fill="#ffffff" font-family="Arial" font-size="14" font-weight="bold">QR Code Generator</text>
  <circle cx="50" cy="165" r="8" fill="#ffffff" opacity="0.3"/>
  <circle cx="220" cy="165" r="8" fill="#ffffff" opacity="0.3"/>
</svg>